<svg xmlns="http://www.w3.org/2000/svg" xmlns:svg="http://www.w3.org/2000/svg" xmlns:xlink="http://www.w3.org/1999/xlink" version="1.0" height="927.9898944706073pt" width="1075.6060606060598pt" viewBox="-245.00000000000045 163.66666666666666 1083.6060606060598 933.9898944706073" ><defs><style type="text/css">
            @font-face {
                font-family: 'noto_regular';
                src: url('https://app.creately.com/d/assets/fonts/noto/noto-regular.woff') format('woff'),
                     url('https://app.creately.com/d/assets/fonts/noto/noto-regular.woff2') format('woff2');
                font-weight: normal;
                font-style: normal;
            }
        p {
            margin: 0;
        }
        </style></defs><defs>
        <style>
            span{ display: inline-block; }
            
        </style>
         <filter id="shadowMH8Wosnc4hX"><feDropShadow dx="0" dy="0" stdDeviation="1" flood-color="#e0deda" /></filter>
        </defs><g id="fpqxozTJvP0"><g transform="translate(-71.36363636363717 169.99999999999994)"><path d="M 48.18181818181815,0 L 0,26.666666666666664 L 48.18181818181815,53.33333333333333 L 96.3636363636363,26.666666666666664 L 48.18181818181815,0 Z" fill="rgb(177,228,87)" stroke="#b1e457" stroke-width="2" stroke-linecap="round" stroke-linejoin="round" stroke-dasharray="0 0"/></g><g transform="translate(-62.04181818181902, 187.4666666666666) rotate(0, 38.86, 9.2)" width="77.72" height="18.4"><text text-decoration="none" x="0.0006249999999994316" fill="#222020" font-size="10pt" font-family="noto_regular"  y="13.5">Registered?&#160;</text><text text-decoration="none" x="77.719375" fill="#4b4b4b" font-size="10pt" font-family="noto_regular"  y="13.5"></text></g></g><g id="bVyzRSL18ho"><g transform="translate(153.48484848484782 166.66666666666666)"><rect x="0" y="0" width="112.42424242424254" height="60" fill="rgb(98,186,243)" stroke="#62baf3" stroke-width="2" stroke-linecap="round" stroke-linejoin="round" stroke-dasharray="0 0"/></g><g transform="translate(171.6319696969691, 178.26666666666665) rotate(0, 38.065, 18.4)" width="76.13" height="36.8"><text text-decoration="none" x="23.498593749999998" fill="#222020" font-size="10pt" font-family="noto_regular"  y="13.5">User&#160;</text><text text-decoration="none" x="0.0024999999999977263" fill="#222020" font-size="10pt" font-family="noto_regular"  y="31.8984375">Registration</text><text text-decoration="none" x="76.1275" fill="#4b4b4b" font-size="10pt" font-family="noto_regular"  y="31.8984375"></text></g></g><g id="9PdHc14aKNZ"><g transform="translate(-71.36363636363672 290.00000000000017)"><rect x="0" y="0" width="96.3636363636363" height="40" fill="rgb(98,186,243)" stroke="#62baf3" stroke-width="2" stroke-linecap="round" stroke-linejoin="round" stroke-dasharray="0 0"/></g><g transform="translate(-40.64681818181856, 300.8000000000002) rotate(0, 17.465, 9.2)" width="34.93" height="18.4"><text text-decoration="none" x="0.004062499999999858" fill="#1e1d1d" font-size="10pt" font-family="noto_regular"  y="13.5">Login</text><text text-decoration="none" x="34.9259375" fill="#4b4b4b" font-size="10pt" font-family="noto_regular"  y="13.5"></text></g></g><g id="lVZxtkoYJkJ"><g transform="translate(-71.36363636363717 403.3333333333332)"><path d="M 48.18181818181815,0 L 0,26.666666666666664 L 48.18181818181815,53.33333333333333 L 96.3636363636363,26.666666666666664 L 48.18181818181815,0 Z" fill="rgb(177,228,87)" stroke="#b1e457" stroke-width="2" stroke-linecap="round" stroke-linejoin="round" stroke-dasharray="0 0"/></g><g transform="translate(-40.82181818181902, 420.7999999999999) rotate(0, 17.64, 9.2)" width="35.28" height="18.4"><text text-decoration="none" x="0.0032812500000005684" fill="#1e1d1d" font-size="10pt" font-family="noto_regular"  y="13.5">Shop&#160;</text><text text-decoration="none" x="35.27671875" fill="#4b4b4b" font-size="10pt" font-family="noto_regular"  y="13.5"></text></g></g><g id="dg3AvPyryfO"><g transform="translate(161.51515151515082 390)"><path d="M 56.212121212121154,0 L 0,40 L 56.212121212121154,80 L 112.42424242424231,40 L 56.212121212121154,0 Z" fill="rgb(177,228,87)" stroke="#b1e457" stroke-width="2" stroke-linecap="round" stroke-linejoin="round" stroke-dasharray="0 0"/></g><g transform="translate(190.67727272727197, 402.4) rotate(0, 27.05, 27.6)" width="54.1" height="55.2"><text text-decoration="none" x="12.34296875" fill="#1e1d1d" font-size="10pt" font-family="noto_regular"  y="13.5">View</text><text text-decoration="none" x="41.75703125" fill="#1e1d1d" font-size="10pt" font-family="noto_regular"  y="13.5"></text><text text-decoration="none" x="0.0031250000000007105" fill="#1e1d1d" font-size="10pt" font-family="noto_regular"  y="31.8984375">Account&#160;</text><text text-decoration="none" x="4.092968750000001" fill="#1e1d1d" font-size="10pt" font-family="noto_regular"  y="50.296875">Status?</text><text text-decoration="none" x="50.00703125" fill="#4b4b4b" font-size="10pt" font-family="noto_regular"  y="50.296875"></text></g></g><g id="Nsxo5TftAYM"><g transform="translate(-82.49943700640051 518.3840886032161)"><rect x="0" y="0" width="120" height="60" fill="rgb(98,186,243)" stroke="#62baf3" stroke-width="2" stroke-linecap="round" stroke-linejoin="round" stroke-dasharray="0 0"/></g><g transform="translate(-61.279437006400514, 529.9840886032162) rotate(0, 38.78, 18.4)" width="77.56" height="36.8"><text text-decoration="none" x="0.002656250000001137" fill="#1e1d1d" font-size="10pt" font-family="noto_regular"  y="13.5">View/Search&#160;</text><text text-decoration="none" x="20.9440625" fill="#1e1d1d" font-size="10pt" font-family="noto_regular"  y="31.8984375">Items</text><text text-decoration="none" x="56.6159375" fill="#4b4b4b" font-size="10pt" font-family="noto_regular"  y="31.8984375"></text></g></g><g id="g3hB9CWGk7X"><g transform="translate(169.54545454545405 520.0000000000001)"><rect x="0" y="0" width="96.3636363636363" height="80" fill="rgb(98,186,243)" stroke="#62baf3" stroke-width="2" stroke-linecap="round" stroke-linejoin="round" stroke-dasharray="0 0"/></g><g transform="translate(192.40227272727222, 532.4000000000001) rotate(0, 25.325, 27.6)" width="50.65" height="55.2"><text text-decoration="none" x="10.61796875" fill="#1e1d1d" font-size="10pt" font-family="noto_regular"  y="13.5">View&#160;</text><text text-decoration="none" x="0.0007812499999992895" fill="#1e1d1d" font-size="10pt" font-family="noto_regular"  y="31.8984375">Account&#160;</text><text text-decoration="none" x="5.813281249999999" fill="#1e1d1d" font-size="10pt" font-family="noto_regular"  y="50.296875">Status</text><text text-decoration="none" x="44.83671875" fill="#4b4b4b" font-size="10pt" font-family="noto_regular"  y="50.296875"></text></g></g><g id="hbxlT31oM5z"><g transform="translate(402.42424242424136 530)"><rect x="0" y="0" width="96.3636363636363" height="40" fill="rgb(98,186,243)" stroke="#62baf3" stroke-width="2" stroke-linecap="round" stroke-linejoin="round" stroke-dasharray="0 0"/></g><g transform="translate(428.4310606060595, 540.8) rotate(0, 22.175, 9.2)" width="44.35" height="18.4"><text text-decoration="none" x="0.0031250000000007105" fill="#1e1d1d" font-size="10pt" font-family="noto_regular"  y="13.5">Logout</text><text text-decoration="none" x="44.346875" fill="#4b4b4b" font-size="10pt" font-family="noto_regular"  y="13.5"></text></g></g><g id="o6N38fgUKqC"><g transform="translate(-71.36363636363717 613.3333333333334)"><rect x="0" y="0" width="96.3636363636363" height="60" fill="rgb(98,186,243)" stroke="#62baf3" stroke-width="2" stroke-linecap="round" stroke-linejoin="round" stroke-dasharray="0 0"/></g><g transform="translate(-55.21181818181902, 624.9333333333334) rotate(0, 32.03, 18.4)" width="64.06" height="36.8"><text text-decoration="none" x="0.002656250000001137" fill="#1e1d1d" font-size="10pt" font-family="noto_regular"  y="13.5">Add&#160;</text><text text-decoration="none" x="28.38546875" fill="#1e1d1d" font-size="10pt" font-family="noto_regular"  y="13.5">Items&#160;</text><text text-decoration="none" x="10.760468750000001" fill="#1e1d1d" font-size="10pt" font-family="noto_regular"  y="31.8984375">to&#160;</text><text text-decoration="none" x="27.09640625" fill="#1e1d1d" font-size="10pt" font-family="noto_regular"  y="31.8984375">Cart</text><text text-decoration="none" x="53.29953125" fill="#4b4b4b" font-size="10pt" font-family="noto_regular"  y="31.8984375"></text></g></g><g id="CV22bcIRswq"><g transform="translate(-71.36363636363717 700.0000000000003)"><rect x="0" y="0" width="96.3636363636363" height="60" fill="rgb(98,186,243)" stroke="#62baf3" stroke-width="2" stroke-linecap="round" stroke-linejoin="round" stroke-dasharray="0 0"/></g><g transform="translate(-60.74181818181902, 711.6000000000004) rotate(0, 37.56, 18.4)" width="75.12" height="36.8"><text text-decoration="none" x="0.0014062500000022737" fill="#1e1d1d" font-size="10pt" font-family="noto_regular"  y="13.5">Display&#160;</text><text text-decoration="none" x="48.91546875" fill="#1e1d1d" font-size="10pt" font-family="noto_regular"  y="13.5">Cart&#160;</text><text text-decoration="none" x="9.329531250000002" fill="#1e1d1d" font-size="10pt" font-family="noto_regular"  y="31.8984375">Contents</text><text text-decoration="none" x="65.79046875" fill="#4b4b4b" font-size="10pt" font-family="noto_regular"  y="31.8984375"></text></g></g><g id="FwiPhfK99qz"><g transform="translate(-79.39393939394017 796.6666666666667)"><path d="M 56.212121212121225,0 L 0,33.33333333333327 L 56.212121212121225,66.66666666666654 L 112.42424242424245,33.33333333333327 L 56.212121212121225,0 Z" fill="rgb(177,228,87)" stroke="#b1e457" stroke-width="2" stroke-linecap="round" stroke-linejoin="round" stroke-dasharray="0 0"/></g><g transform="translate(-57.591818181818944, 811.6) rotate(0, 34.41, 18.4)" width="68.82" height="36.8"><text text-decoration="none" x="10.374843749999997" fill="#1e1d1d" font-size="10pt" font-family="noto_regular"  y="13.5">Change</text><text text-decoration="none" x="58.44515625" fill="#1e1d1d" font-size="10pt" font-family="noto_regular"  y="13.5"></text><text text-decoration="none" x="0.0037499999999965894" fill="#1e1d1d" font-size="10pt" font-family="noto_regular"  y="31.8984375">Cart&#160;</text><text text-decoration="none" x="33.144375" fill="#1e1d1d" font-size="10pt" font-family="noto_regular"  y="31.8984375">Items</text><text text-decoration="none" x="68.81625" fill="#4b4b4b" font-size="10pt" font-family="noto_regular"  y="31.8984375"></text></g></g><g id="mESfrrkuE5I"><g transform="translate(-71.36363636363717 923.3333333333338)"><rect x="0" y="0" width="100" height="80" fill="rgb(98,186,243)" stroke="#62baf3" stroke-width="2" stroke-linecap="round" stroke-linejoin="round" stroke-dasharray="0 0"/></g><g transform="translate(-53.73363636363717, 935.7333333333338) rotate(0, 32.37, 27.6)" width="64.74" height="55.2"><text text-decoration="none" x="8.334843749999997" fill="#1e1d1d" font-size="10pt" font-family="noto_regular"  y="13.5">Change&#160;</text><text text-decoration="none" x="17.721562499999997" fill="#1e1d1d" font-size="10pt" font-family="noto_regular"  y="31.8984375">Item&#160;</text><text text-decoration="none" x="0.002812499999997442" fill="#1e1d1d" font-size="10pt" font-family="noto_regular"  y="50.296875">Quantities</text><text text-decoration="none" x="64.7371875" fill="#4b4b4b" font-size="10pt" font-family="noto_regular"  y="50.296875"></text></g></g><g id="9GVaUpI4tac"><g transform="translate(165.34928162411416 903.111127548459)"><rect x="0" y="0" width="102.3285200188625" height="63.309467112125006" fill="rgb(98,186,243)" stroke="#62baf3" stroke-width="2" stroke-linecap="round" stroke-linejoin="round" stroke-dasharray="0 0"/></g><g transform="translate(187.1185416335454, 925.5658611045214) rotate(0, 29.395, 9.2)" width="58.79" height="18.4"><text text-decoration="none" x="0.004374999999999574" fill="#1e1d1d" font-size="10pt" font-family="noto_regular"  y="13.5">Checkout</text><text text-decoration="none" x="58.785624999999996" fill="#4b4b4b" font-size="10pt" font-family="noto_regular"  y="13.5"></text></g></g><g id="O8g1tvRBYMw"><g transform="translate(394.3939393939386 656.6666666666671)"><rect x="0" y="0" width="96.3636363636363" height="60" fill="rgb(98,186,243)" stroke="#62baf3" stroke-width="2" stroke-linecap="round" stroke-linejoin="round" stroke-dasharray="0 0"/></g><g transform="translate(412.6457575757567, 668.2666666666671) rotate(0, 29.93, 18.4)" width="59.86" height="36.8"><text text-decoration="none" x="0.0003124999999997158" fill="#1e1d1d" font-size="10pt" font-family="noto_regular"  y="13.5">Shopping&#160;</text><text text-decoration="none" x="16.8284375" fill="#1e1d1d" font-size="10pt" font-family="noto_regular"  y="31.8984375">Cart</text><text text-decoration="none" x="43.0315625" fill="#4b4b4b" font-size="10pt" font-family="noto_regular"  y="31.8984375"></text></g></g><g id="iuUgJ7EDjpc"><g transform="translate(394.3939393939388 766.6666666666671)"><rect x="0" y="0" width="96.3636363636363" height="80" fill="rgb(98,186,243)" stroke="#62baf3" stroke-width="2" stroke-linecap="round" stroke-linejoin="round" stroke-dasharray="0 0"/></g><g transform="translate(412.44575757575694, 779.0666666666671) rotate(0, 30.13, 27.6)" width="60.26" height="55.2"><text text-decoration="none" x="2.462031249999999" fill="#1e1d1d" font-size="10pt" font-family="noto_regular"  y="13.5">Payment&#160;</text><text text-decoration="none" x="9.258906249999999" fill="#1e1d1d" font-size="10pt" font-family="noto_regular"  y="31.8984375">Info&#160;</text><text text-decoration="none" x="38.133906249999995" fill="#1e1d1d" font-size="10pt" font-family="noto_regular"  y="31.8984375">to&#160;</text><text text-decoration="none" x="0.0010937499999990052" fill="#1e1d1d" font-size="10pt" font-family="noto_regular"  y="50.296875">Merchant</text><text text-decoration="none" x="60.258906249999995" fill="#4b4b4b" font-size="10pt" font-family="noto_regular"  y="50.296875"></text></g></g><g id="Io6ajTyUOy7"><g transform="translate(370.30303030302935 883.3333333333335)"><path d="M 72.27272727272721,0 L 0,26.666666666666664 L 72.27272727272721,53.33333333333333 L 144.54545454545442,26.666666666666664 L 72.27272727272721,0 Z" fill="rgb(177,228,87)" stroke="#b1e457" stroke-width="2" stroke-linecap="round" stroke-linejoin="round" stroke-dasharray="0 0"/></g><g transform="translate(408.64575757575653, 900.8000000000002) rotate(0, 33.93, 9.2)" width="67.86" height="18.4"><text text-decoration="none" x="0.004218749999999716" fill="#1e1d1d" font-size="10pt" font-family="noto_regular"  y="13.5">Approved?</text><text text-decoration="none" x="67.85578125" fill="#4b4b4b" font-size="10pt" font-family="noto_regular"  y="13.5"></text></g></g><g id="nAkyRYMmRjh"><g transform="translate(720.0000000000002 896.6666666666667)"><path d="M 20,40 L 20,40 L 20,40 A 20 20 0 0 1 0 20.000000000000004 L 0,20 L 0,20.000000000000004 A 20 20 0 0 1 20 0 L 92.42424242424246,0 L 92.42424242424246,0 L 92.42424242424246,0 A 20 20 0 0 1 112.42424242424246 20 L 112.42424242424246,20 L 112.42424242424246,20 A 20 20 0 0 1 92.42424242424246 40 L 20,40 Z" fill="rgb(255,255,255)" stroke="#f77474" stroke-width="2" stroke-linecap="round" stroke-linejoin="round" stroke-dasharray="0 0"/></g><g transform="translate(764.2821212121215, 907.4666666666667) rotate(0, 11.93, 9.2)" width="23.86" height="18.4"><text text-decoration="none" x="0.0003124999999997158" fill="#1e1d1d" font-size="10pt" font-family="noto_regular"  y="13.5">End</text><text text-decoration="none" x="23.8596875" fill="#4b4b4b" font-size="10pt" font-family="noto_regular"  y="13.5"></text></g></g><g id="3r1o6fdTce9"><g transform="translate(715.6060606060594 1023.3333333333336)"><rect x="0" y="0" width="120" height="60" fill="rgb(98,186,243)" stroke="#62baf3" stroke-width="2" stroke-linecap="round" stroke-linejoin="round" stroke-dasharray="0 0"/></g><g transform="translate(734.2460606060594, 1034.9333333333334) rotate(0, 41.36, 18.4)" width="82.72" height="36.8"><text text-decoration="none" x="22.7975" fill="#1e1d1d" font-size="10pt" font-family="noto_regular"  y="13.5">Order&#160;</text><text text-decoration="none" x="0.0045312499999994316" fill="#1e1d1d" font-size="10pt" font-family="noto_regular"  y="31.8984375">Confirmation</text><text text-decoration="none" x="82.71546875" fill="#4b4b4b" font-size="10pt" font-family="noto_regular"  y="31.8984375"></text></g></g><g id="uKmjWkNt4Na"><g><path d="M -160,197 L -125.53002211147152,196.7416219715342 Q -124.95408138789085,196.7373048690065 -116,197 Q -106.10652395261367,196.73720873529854 -105.53058318502323,196.74151996254827 L -71,197" fill="none" stroke="#1a1a1a" stroke-width="2" stroke-linecap="round" stroke-linejoin="round" stroke-dasharray="0 0"/><path d="M -71,197 L -79.69565217391305,191.25 L -79.69565217391305,202.75 Z" fill="rgb(26,26,26)" stroke="#1a1a1a" stroke-width="2" stroke-linecap="round" stroke-linejoin="round"/></g></g><g id="I50DJy3mafH"><mask id="26f8e" x="11" y="183" width="156" height="28" maskUnits="userSpaceOnUse"><rect x="11" y="183" width="156" height="28" fill="white" /><rect x="77.0475851442741" y="184.6039454266225" width="24.19" height="24.4" fill="black" /></mask><g mask="url(#26f8e)"><path d="M 25,197 L 79.24255885166704,196.71855276067527 Q 79.65471907652633,196.7164141934708 89,197 Q 98.83012743799091,196.7167924913583 99.2422875781488,196.7189473209884 L 153,197" fill="none" stroke="#1a1a1a" stroke-width="2" stroke-linecap="round" stroke-linejoin="round" stroke-dasharray="0 0"/><path d="M 153,197 L 144.30434782608697,191.25 L 144.30434782608697,202.75 Z" fill="rgb(26,26,26)" stroke="#1a1a1a" stroke-width="2" stroke-linecap="round" stroke-linejoin="round"/></g><g transform="translate(80.0475851442741, 187.6039454266225)" width="18.19" height="18.4"><text text-decoration="none" x="0.0012500000000006395" fill="#4b4b4b" font-size="10pt" font-family="noto_regular"  y="13.5">No</text><text text-decoration="none" x="18.18875" fill="#4b4b4b" font-size="10pt" font-family="noto_regular"  y="13.5"></text></g></g><g id="PqSLAORDF7R"><mask id="060be" x="-37" y="209" width="28" height="95" maskUnits="userSpaceOnUse"><rect x="-37" y="209" width="28" height="95" fill="white" /><rect x="-36.80480751299125" y="244.65368622618342" width="27.45" height="24.4" fill="black" /></mask><g mask="url(#060be)"><path d="M -23,223 L -23.12781356881773,246.66681249264127 Q -23.12986410173104,247.04650283708764 -23,257 Q -23.129344576310274,266.2868276764996 -23.127273538674874,266.6665179096555 L -23,290" fill="none" stroke="#1a1a1a" stroke-width="2" stroke-linecap="round" stroke-linejoin="round" stroke-dasharray="0 0"/><path d="M -23,290 L -17.25,281.30434782608694 L -28.75,281.30434782608694 Z" fill="rgb(26,26,26)" stroke="#1a1a1a" stroke-width="2" stroke-linecap="round" stroke-linejoin="round"/></g><g transform="translate(-33.80480751299125, 247.65368622618342)" width="21.45" height="18.4"><text text-decoration="none" x="0.0023437499999996447" fill="#4b4b4b" font-size="10pt" font-family="noto_regular"  y="13.5">Yes</text><text text-decoration="none" x="21.44765625" fill="#4b4b4b" font-size="10pt" font-family="noto_regular"  y="13.5"></text></g></g><g id="4CPbWKKEzba"><g><path d="M 210,227 L 209.6969696969691,310.00000000000017 L 25,310" fill="none" stroke="#1a1a1a" stroke-width="2" stroke-linecap="round" stroke-linejoin="round" stroke-dasharray="0 0"/><path d="M 25,310 L 33.69565217391305,315.75 L 33.69565217391305,304.25 Z" fill="rgb(26,26,26)" stroke="#1a1a1a" stroke-width="2" stroke-linecap="round" stroke-linejoin="round"/></g></g><g id="kYb9ltRyjoO"><g><path d="M -23,330 L -23.132232014579554,356.66678960682145 Q -23.134114780927053,357.04648082023283 -23,367 Q -23.133677145956973,376.28685033305504 -23.13177710695428,376.6665414604242 L -23,403" fill="none" stroke="#1a1a1a" stroke-width="2" stroke-linecap="round" stroke-linejoin="round" stroke-dasharray="0 0"/><path d="M -23,403 L -17.25,394.30434782608694 L -28.75,394.30434782608694 Z" fill="rgb(26,26,26)" stroke="#1a1a1a" stroke-width="2" stroke-linecap="round" stroke-linejoin="round"/></g></g><g id="fW8jLfIrjVX"><mask id="005b0" x="-37" y="443" width="29" height="89" maskUnits="userSpaceOnUse"><rect x="-37" y="443" width="29" height="89" fill="white" /><rect x="-36.676256156004364" y="475.7537822036086" width="27.45" height="24.4" fill="black" /></mask><g mask="url(#005b0)"><path d="M -23,457 L -23.122256279307777,477.5255550175261 Q -23.125283549203637,478.0338020797811 -23,488 Q -22.34687622999821,496.83432348596625 -22.335572810540743,497.5240349710698 L -22,518" fill="none" stroke="#1a1a1a" stroke-width="2" stroke-linecap="round" stroke-linejoin="round" stroke-dasharray="0 0"/><path d="M -22,518 L -16.25,509.30434782608694 L -27.75,509.30434782608694 Z" fill="rgb(26,26,26)" stroke="#1a1a1a" stroke-width="2" stroke-linecap="round" stroke-linejoin="round"/></g><g transform="translate(-33.676256156004364, 478.7537822036086)" width="21.45" height="18.4"><text text-decoration="none" x="0.0023437499999996447" fill="#4b4b4b" font-size="10pt" font-family="noto_regular"  y="13.5">Yes</text><text text-decoration="none" x="21.44765625" fill="#4b4b4b" font-size="10pt" font-family="noto_regular"  y="13.5"></text></g></g><g id="YZFLIc3BghA"><mask id="f694f" x="11" y="416" width="165" height="28" maskUnits="userSpaceOnUse"><rect x="11" y="416" width="165" height="28" fill="white" /><rect x="81.14742424242502" y="417.8" width="24.19" height="24.4" fill="black" /></mask><g mask="url(#f694f)"><path d="M 25,430 L 83.25757575757498,429.9999999999999 Q 83.51515151514997,429.9999999999999 93,430 Q 103,430 103.25757575757498,430 L 162,430" fill="none" stroke="#1a1a1a" stroke-width="2" stroke-linecap="round" stroke-linejoin="round" stroke-dasharray="0 0"/><path d="M 162,430 L 153.30434782608697,424.25 L 153.30434782608697,435.75 Z" fill="rgb(26,26,26)" stroke="#1a1a1a" stroke-width="2" stroke-linecap="round" stroke-linejoin="round"/></g><g transform="translate(84.14742424242502, 420.8)" width="18.19" height="18.4"><text text-decoration="none" x="0.0012500000000006395" fill="#4b4b4b" font-size="10pt" font-family="noto_regular"  y="13.5">No</text><text text-decoration="none" x="18.18875" fill="#4b4b4b" font-size="10pt" font-family="noto_regular"  y="13.5"></text></g></g><g id="7ADu1sln9Lf"><mask id="f2468" x="204" y="456" width="28" height="78" maskUnits="userSpaceOnUse"><rect x="204" y="456" width="28" height="78" fill="white" /><rect x="204.27499999999984" y="482.8" width="27.45" height="24.4" fill="black" /></mask><g mask="url(#f2468)"><path d="M 218,470 L 217.83635714558264,485.0005949882165 Q 217.83338211599235,485.27330603399315 218,495 Q 217.8333821159925,504.7266939660072 217.83635714558278,504.9994050117836 L 218,520" fill="none" stroke="#1a1a1a" stroke-width="2" stroke-linecap="round" stroke-linejoin="round" stroke-dasharray="0 0"/><path d="M 218,520 L 223.75,511.30434782608694 L 212.25,511.30434782608694 Z" fill="rgb(26,26,26)" stroke="#1a1a1a" stroke-width="2" stroke-linecap="round" stroke-linejoin="round"/></g><g transform="translate(207.27499999999984, 485.8)" width="21.45" height="18.4"><text text-decoration="none" x="0.0023437499999996447" fill="#4b4b4b" font-size="10pt" font-family="noto_regular"  y="13.5">Yes</text><text text-decoration="none" x="21.44765625" fill="#4b4b4b" font-size="10pt" font-family="noto_regular"  y="13.5"></text></g></g><g id="p2CTwYmJBEu"><mask id="f4d85" x="260" y="416" width="205" height="128" maskUnits="userSpaceOnUse"><rect x="260" y="416" width="205" height="128" fill="white" /><rect x="400.20841827213974" y="417.8" width="24.19" height="24.4" fill="black" /></mask><g mask="url(#f4d85)"><path d="M 274,430 L 450.6060606060595,430 L 451,530" fill="none" stroke="#1a1a1a" stroke-width="2" stroke-linecap="round" stroke-linejoin="round" stroke-dasharray="0 0"/><path d="M 451,530 L 456.75,521.304347826087 L 445.25,521.304347826087 Z" fill="rgb(26,26,26)" stroke="#1a1a1a" stroke-width="2" stroke-linecap="round" stroke-linejoin="round"/></g><g transform="translate(403.20841827213974, 420.8)" width="18.19" height="18.4"><text text-decoration="none" x="0.0012500000000006395" fill="#4b4b4b" font-size="10pt" font-family="noto_regular"  y="13.5">No</text><text text-decoration="none" x="18.18875" fill="#4b4b4b" font-size="10pt" font-family="noto_regular"  y="13.5"></text></g></g><g id="OIJJQDka7Ta"><g><path d="M -22,578 L -22.219886137689482,585.8626191663852 Q -22.234426166675068,586.3825369373877 -23,596 Q -23.078196094979898,605.627899741419 -23.075753839606964,605.8581484702202 L -23,613" fill="none" stroke="#1a1a1a" stroke-width="2" stroke-linecap="round" stroke-linejoin="round" stroke-dasharray="0 0"/><path d="M -23,613 L -17.25,604.304347826087 L -28.75,604.304347826087 Z" fill="rgb(26,26,26)" stroke="#1a1a1a" stroke-width="2" stroke-linecap="round" stroke-linejoin="round"/></g></g><g id="2l9bvMtiPVQ"><g><path d="M -23,673 L -23.048792259431906,676.6675515006148 Q -23.05384319891687,677.0472137852327 -23,687 Q -23.05064441190621,696.2860764602285 -23.04546722212412,696.6657370442465 L -23,700" fill="none" stroke="#1a1a1a" stroke-width="2" stroke-linecap="round" stroke-linejoin="round" stroke-dasharray="0 0"/><path d="M -23,700 L -17.25,691.304347826087 L -28.75,691.304347826087 Z" fill="rgb(26,26,26)" stroke="#1a1a1a" stroke-width="2" stroke-linecap="round" stroke-linejoin="round"/></g></g><g id="H8NBDtr0vAq"><g><path d="M -23,760 L -23.08264950479458,768.3338250667487 Q -23.086414898617576,768.7135022772321 -23,778 Q -23.08811836559306,787.9531811324837 -23.084420204508945,788.3328590037848 L -23,797" fill="none" stroke="#1a1a1a" stroke-width="2" stroke-linecap="round" stroke-linejoin="round" stroke-dasharray="0 0"/><path d="M -23,797 L -17.25,788.304347826087 L -28.75,788.304347826087 Z" fill="rgb(26,26,26)" stroke="#1a1a1a" stroke-width="2" stroke-linecap="round" stroke-linejoin="round"/></g></g><g id="l9l8CJxIZ69"><mask id="082a0" x="-37" y="849" width="30" height="88" maskUnits="userSpaceOnUse"><rect x="-37" y="849" width="30" height="88" fill="white" /><rect x="-36.29021315744902" y="880.9594190956907" width="27.45" height="24.4" fill="black" /></mask><g mask="url(#082a0)"><path d="M -23,863 L -23.12187919861609,883.3335129690323 Q -23.12923926968435,884.5614181589159 -22,893 Q -21.249876328709114,902.61425618286 -21.241071515448674,903.3325821980227 L -21,923" fill="none" stroke="#1a1a1a" stroke-width="2" stroke-linecap="round" stroke-linejoin="round" stroke-dasharray="0 0"/><path d="M -21,923 L -15.25,914.304347826087 L -26.75,914.304347826087 Z" fill="rgb(26,26,26)" stroke="#1a1a1a" stroke-width="2" stroke-linecap="round" stroke-linejoin="round"/></g><g transform="translate(-33.29021315744902, 883.9594190956907)" width="21.45" height="18.4"><text text-decoration="none" x="0.0023437499999996447" fill="#4b4b4b" font-size="10pt" font-family="noto_regular"  y="13.5">Yes</text><text text-decoration="none" x="21.44765625" fill="#4b4b4b" font-size="10pt" font-family="noto_regular"  y="13.5"></text></g></g><g id="SU87EpYmHD5"><g><path d="M 29,963 L 86.99294279953676,963.284309140074 Q 96.99282263023849,963.3333333333338 96.99783009688616,953.33333458707 L 97,949 L 96.99786499275987,944.7658598332504 Q 96.99282263023849,934.7658611045215 106.9927633644899,934.8002894570708 L 165,935" fill="none" stroke="#1a1a1a" stroke-width="2" stroke-linecap="round" stroke-linejoin="round" stroke-dasharray="0 0"/><path d="M 165,935 L 156.30434782608697,929.25 L 156.30434782608697,940.75 Z" fill="rgb(26,26,26)" stroke="#1a1a1a" stroke-width="2" stroke-linecap="round" stroke-linejoin="round"/></g></g><g id="hM3o6vb9Lly"><g><path d="M 268,935 L 331.0358705184576,934.7658611045215 L 331,811 L 331.0358705184576,686.6666666666671 L 394,687" fill="none" stroke="#1a1a1a" stroke-width="2" stroke-linecap="round" stroke-linejoin="round" stroke-dasharray="0 0"/><path d="M 394,687 L 385.30434782608694,681.25 L 385.30434782608694,692.75 Z" fill="rgb(26,26,26)" stroke="#1a1a1a" stroke-width="2" stroke-linecap="round" stroke-linejoin="round"/></g></g><g id="9GY4OKy4Ywy"><g><path d="M 443,717 L 442.7477223155104,731.6681453695811 Q 442.73844429991857,732.207595704705 443,742 Q 442.7341642868524,751.1258102720648 442.743198213517,751.6652647500399 L 443,767" fill="none" stroke="#1a1a1a" stroke-width="2" stroke-linecap="round" stroke-linejoin="round" stroke-dasharray="0 0"/><path d="M 443,767 L 448.75,758.304347826087 L 437.25,758.304347826087 Z" fill="rgb(26,26,26)" stroke="#1a1a1a" stroke-width="2" stroke-linecap="round" stroke-linejoin="round"/></g></g><g id="JWkdhTn45GS"><g><path d="M 443,847 L 442.8113823758783,855.0027763377244 Q 442.80138617223673,855.4269009779429 443,865 Q 442.80138617223656,874.5730990220572 442.8113823758781,874.997223662276 L 443,883" fill="none" stroke="#1a1a1a" stroke-width="2" stroke-linecap="round" stroke-linejoin="round" stroke-dasharray="0 0"/><path d="M 443,883 L 448.75,874.304347826087 L 437.25,874.304347826087 Z" fill="rgb(26,26,26)" stroke="#1a1a1a" stroke-width="2" stroke-linecap="round" stroke-linejoin="round"/></g></g><g id="XKxvfhyEq66"><mask id="2e4d3" x="429" y="923" width="28" height="107" maskUnits="userSpaceOnUse"><rect x="429" y="923" width="28" height="107" fill="white" /><rect x="429.2642962259992" y="963.8526208090889" width="27.45" height="24.4" fill="black" /></mask><g mask="url(#2e4d3)"><path d="M 443,937 L 442.68356800277576,966.3490727987199 Q 442.6776489447505,966.8980655251418 443,976 Q 442.94635406429353,985.9928478971126 442.946989845501,986.3484756468242 L 443,1016" fill="none" stroke="#1a1a1a" stroke-width="2" stroke-linecap="round" stroke-linejoin="round" stroke-dasharray="0 0"/><path d="M 443,1016 L 448.75,1007.304347826087 L 437.25,1007.304347826087 Z" fill="rgb(26,26,26)" stroke="#1a1a1a" stroke-width="2" stroke-linecap="round" stroke-linejoin="round"/></g><g transform="translate(432.2642962259992, 966.8526208090889)" width="21.45" height="18.4"><text text-decoration="none" x="0.0023437499999996447" fill="#4b4b4b" font-size="10pt" font-family="noto_regular"  y="13.5">Yes</text><text text-decoration="none" x="21.44765625" fill="#4b4b4b" font-size="10pt" font-family="noto_regular"  y="13.5"></text></g></g><g id="LTzMVDhVxBI"><mask id="02832" x="477" y="673" width="105" height="251" maskUnits="userSpaceOnUse"><rect x="477" y="673" width="105" height="251" fill="white" /><rect x="555.905" y="774.1714684764484" width="24.19" height="24.4" fill="black" />undefined</mask><g mask="url(#02832)"><path d="M 515,910 L 568,910.0000000000002 L 568,800 L 568,689 L 529,689 L 490.7575757575749,689 L 491,687" fill="none" stroke="#1a1a1a" stroke-width="2" stroke-linecap="round" stroke-linejoin="round" stroke-dasharray="0 0"/><path d="M 491,687 L 485.25,695.695652173913 L 496.75,695.695652173913 Z" fill="rgb(26,26,26)" stroke="#1a1a1a" stroke-width="2" stroke-linecap="round" stroke-linejoin="round"/></g><g transform="translate(558.905, 777.1714684764484)" width="18.19" height="18.4"><text text-decoration="none" x="0.0012500000000006395" fill="#4b4b4b" font-size="10pt" font-family="noto_regular"  y="13.5">No</text><text text-decoration="none" x="18.18875" fill="#4b4b4b" font-size="10pt" font-family="noto_regular"  y="13.5"></text></g>undefined</g><g id="SlHyaINQr01"><g><path d="M 496,1053 L 517.9295624558432,1052.7918819475678 Q 518.2407465050555,1052.7889287186376 528,1053 Q 537.8575071402677,1052.9930229055858 537.9291116611714,1052.993045468154 L 560,1053" fill="none" stroke="#1a1a1a" stroke-width="2" stroke-linecap="round" stroke-linejoin="round" stroke-dasharray="0 0"/><path d="M 560,1053 L 551.304347826087,1047.25 L 551.304347826087,1058.75 Z" fill="rgb(26,26,26)" stroke="#1a1a1a" stroke-width="2" stroke-linecap="round" stroke-linejoin="round"/></g></g><g id="chsgxwlYvtN"><g><path d="M 667,1053 L 681.2878796534623,1052.9940551997538 Q 681.5759357311109,1052.9939353474117 691,1053 Q 700.8465716226904,1053.2043994017788 701.2869691926243,1053.1984590298973 L 716,1053" fill="none" stroke="#1a1a1a" stroke-width="2" stroke-linecap="round" stroke-linejoin="round" stroke-dasharray="0 0"/><path d="M 716,1053 L 707.304347826087,1047.25 L 707.304347826087,1058.75 Z" fill="rgb(26,26,26)" stroke="#1a1a1a" stroke-width="2" stroke-linecap="round" stroke-linejoin="round"/></g></g><g id="2fakbloXJra"><g><path d="M 776,1023 L 775.6976705742305,989.9995803718824 Q 775.6940616966965,989.6056575087464 776,980 Q 776.1638376900125,970.2122403039465 776.1627912978926,970.0001216727624 L 776,937" fill="none" stroke="#1a1a1a" stroke-width="2" stroke-linecap="round" stroke-linejoin="round" stroke-dasharray="0 0"/><path d="M 776,937 L 770.25,945.695652173913 L 781.75,945.695652173913 Z" fill="rgb(26,26,26)" stroke="#1a1a1a" stroke-width="2" stroke-linecap="round" stroke-linejoin="round"/></g></g><g id="L8U3R8jnj4V"><mask id="426ee" x="11" y="416" width="173" height="158" maskUnits="userSpaceOnUse"><rect x="11" y="416" width="173" height="158" fill="white" />undefined</mask><g mask="url(#426ee)"><path d="M 170,560 L 75,560.0000000000001 L 75,495 L 75,429.9999999999999 L 25,430" fill="none" stroke="#1a1a1a" stroke-width="2" stroke-linecap="round" stroke-linejoin="round" stroke-dasharray="0 0"/><path d="M 25,430 L 33.69565217391305,435.75 L 33.69565217391305,424.25 Z" fill="rgb(26,26,26)" stroke="#1a1a1a" stroke-width="2" stroke-linecap="round" stroke-linejoin="round"/></g>undefined</g><g id="xaDWrQRsLdv"><g transform="translate(390.00000000000006 1016.0303165881795)"><path d="M 0,0 L 105.85822431522138,0 L 105.85822431522138,73.33333333332331 L 0,73.33333333332331 L 0,0 Z M 85.85822431522138,0 L 85.85822431522138,73.33333333332331 M 20,0 L 20,73.33333333332331" fill="rgb(210,181,249)" stroke="#d2b5f9" stroke-width="2" stroke-linecap="round" stroke-linejoin="round" stroke-dasharray="0 0"/></g><g transform="translate(407.53411215761076, 1034.296983254841) rotate(0, 35.395, 18.4)" width="70.79" height="36.8"><text text-decoration="none" x="22.504375000000003" fill="#1e1d1d" font-size="10pt" font-family="noto_regular"  y="13.5">POS&#160;</text><text text-decoration="none" x="0.004375000000003126" fill="#1e1d1d" font-size="10pt" font-family="noto_regular"  y="31.8984375">Integration</text><text text-decoration="none" x="70.78562500000001" fill="#4b4b4b" font-size="10pt" font-family="noto_regular"  y="31.8984375"></text></g></g><g id="eoRLKi4tqta"><g transform="translate(560 1011.3232278039407)"><path d="M 0,0 L 106.9696969696983,0 L 106.9696969696983,83.33333333333334 L 0,83.33333333333334 L 0,0 Z M 86.9696969696983,0 L 86.9696969696983,83.33333333333334 M 20,0 L 20,83.33333333333334" fill="rgb(210,181,249)" stroke="#d2b5f9" stroke-width="2" stroke-linecap="round" stroke-linejoin="round" stroke-dasharray="0 0"/></g><g transform="translate(579.2498484848492, 1034.5898944706073) rotate(0, 34.235, 18.4)" width="68.47" height="36.8"><text text-decoration="none" x="0.0045312499999994316" fill="#1e1d1d" font-size="10pt" font-family="noto_regular"  y="13.5">Shipping&#160;</text><text text-decoration="none" x="58.71546875" fill="#1e1d1d" font-size="10pt" font-family="noto_regular"  y="13.5">&#x26;&#160;</text><text text-decoration="none" x="5.688124999999999" fill="#1e1d1d" font-size="10pt" font-family="noto_regular"  y="31.8984375">Handling</text><text text-decoration="none" x="62.781875" fill="#4b4b4b" font-size="10pt" font-family="noto_regular"  y="31.8984375"></text></g></g><g id="LimqzIYHon5"><g transform="translate(-240.00000000000045 176.66666666666688)"><path d="M 20,40 L 20,40 L 20,40 A 20 20 0 0 1 0 20.000000000000004 L 0,20 L 0,20.000000000000004 A 20 20 0 0 1 20 0 L 60.303030303030255,0 L 60.303030303030255,0 L 60.303030303030255,0 A 20 20 0 0 1 80.30303030303025 20 L 80.30303030303025,20 L 80.30303030303025,20 A 20 20 0 0 1 60.303030303030255 40 L 20,40 Z" fill="rgb(255,255,255)" stroke="#f77474" stroke-width="2" stroke-linecap="round" stroke-linejoin="round" stroke-dasharray="0 0"/></g><g transform="translate(-214.80348484848534, 187.4666666666669) rotate(0, 14.955, 9.2)" width="29.91" height="18.4"><text text-decoration="none" x="0.001875000000000071" fill="rgb(101, 101, 101)" font-size="10pt" font-family="noto_regular"  y="13.5">Start</text><text text-decoration="none" x="29.908125" fill="#4b4b4b" font-size="10pt" font-family="noto_regular"  y="13.5"></text></g></g><g id="Ivi2nDIk8aR"><mask id="43e60" x="19" y="816" width="212" height="101" maskUnits="userSpaceOnUse"><rect x="19" y="816" width="212" height="101" fill="white" /><rect x="149.16258122470165" y="817.8" width="24.19" height="24.4" fill="black" /></mask><g mask="url(#43e60)"><path d="M 33,830 L 206.5135416335454,830 Q 216.5135416335454,830 216.5801782864057,839.9997779753601 L 217,903" fill="none" stroke="#1a1a1a" stroke-width="2" stroke-linecap="round" stroke-linejoin="round" stroke-dasharray="0 0"/><path d="M 217,903 L 222.75,894.304347826087 L 211.25,894.304347826087 Z" fill="rgb(26,26,26)" stroke="#1a1a1a" stroke-width="2" stroke-linecap="round" stroke-linejoin="round"/></g><g transform="translate(152.16258122470165, 820.8)" width="18.19" height="18.4"><text text-decoration="none" x="0.0012500000000006395" fill="#4b4b4b" font-size="10pt" font-family="noto_regular"  y="13.5">No</text><text text-decoration="none" x="18.18875" fill="#4b4b4b" font-size="10pt" font-family="noto_regular"  y="13.5"></text></g></g></svg>